<svg width="38" height="38" viewBox="0 0 38 38" fill="none" xmlns="http://www.w3.org/2000/svg">
<path d="M21.4225 29.45H25.9825V29.3075L18.145 20.995L18.1925 20.8525H18.6675C20.3775 20.8525 21.7946 20.33 22.9187 19.285C24.0429 18.24 24.7317 17.0208 24.985 15.6275H26.885V13.395H24.9375C24.8425 12.92 24.6763 12.4688 24.4387 12.0413C24.2013 11.6137 23.9083 11.1942 23.56 10.7825H26.885V8.55H11.115V11.2575H18.525C19.3483 11.2575 20.0212 11.4633 20.5437 11.875C21.0662 12.2867 21.4225 12.7933 21.6125 13.395H11.115V15.6275H21.66C21.47 16.2608 21.1058 16.8071 20.5675 17.2663C20.0292 17.7254 19.3008 17.955 18.3825 17.955H13.6325V20.995L21.4225 29.45ZM19 38C16.3717 38 13.9017 37.5013 11.59 36.5037C9.27833 35.5062 7.2675 34.1525 5.5575 32.4425C3.8475 30.7325 2.49375 28.7217 1.49625 26.41C0.49875 24.0983 0 21.6283 0 19C0 16.3717 0.49875 13.9017 1.49625 11.59C2.49375 9.27833 3.8475 7.2675 5.5575 5.5575C7.2675 3.8475 9.27833 2.49375 11.59 1.49625C13.9017 0.49875 16.3717 0 19 0C21.6283 0 24.0983 0.49875 26.41 1.49625C28.7217 2.49375 30.7325 3.8475 32.4425 5.5575C34.1525 7.2675 35.5062 9.27833 36.5037 11.59C37.5013 13.9017 38 16.3717 38 19C38 21.6283 37.5013 24.0983 36.5037 26.41C35.5062 28.7217 34.1525 30.7325 32.4425 32.4425C30.7325 34.1525 28.7217 35.5062 26.41 36.5037C24.0983 37.5013 21.6283 38 19 38ZM19 34.2C23.2433 34.2 26.8375 32.7275 29.7825 29.7825C32.7275 26.8375 34.2 23.2433 34.2 19C34.2 14.7567 32.7275 11.1625 29.7825 8.2175C26.8375 5.2725 23.2433 3.8 19 3.8C14.7567 3.8 11.1625 5.2725 8.2175 8.2175C5.2725 11.1625 3.8 14.7567 3.8 19C3.8 23.2433 5.2725 26.8375 8.2175 29.7825C11.1625 32.7275 14.7567 34.2 19 34.2Z" fill="#E95815"/>
</svg>
