<svg width="33" height="41" viewBox="0 0 33 41" fill="none" xmlns="http://www.w3.org/2000/svg">
<path d="M0 41V28.7C0 27.5725 0.403906 26.6073 1.21172 25.8044C2.01953 25.0015 2.99062 24.6 4.125 24.6H28.875C30.0094 24.6 30.9805 25.0015 31.7883 25.8044C32.5961 26.6073 33 27.5725 33 28.7V41H0ZM4.125 32.8H28.875V28.7H4.125V32.8ZM16.5 24.6L6.1875 10.25C6.1875 7.41417 7.19297 4.99687 9.20391 2.99812C11.2148 0.999375 13.6469 0 16.5 0C19.3531 0 21.7852 0.999375 23.7961 2.99812C25.807 4.99687 26.8125 7.41417 26.8125 10.25L16.5 24.6ZM16.5 18.86L22.6875 10.25C22.6875 8.54167 22.0859 7.08958 20.8828 5.89375C19.6797 4.69792 18.2188 4.1 16.5 4.1C14.7812 4.1 13.3203 4.69792 12.1172 5.89375C10.9141 7.08958 10.3125 8.54167 10.3125 10.25L16.5 18.86Z" fill="#E95815"/>
</svg>
