<svg width="27" height="37" viewBox="0 0 27 37" fill="none" xmlns="http://www.w3.org/2000/svg">
<path fill-rule="evenodd" clip-rule="evenodd" d="M27 3.68182C27 2.70491 26.611 1.7685 25.9212 1.07755C25.2303 0.387818 24.2939 0 23.3182 0C18.6153 0 8.38473 0 3.68182 0C2.70491 0 1.7685 0.387818 1.07755 1.07755C0.387819 1.7685 0 2.70491 0 3.68182C0 10.0158 0 26.8601 0 33.194C0 34.171 0.387819 35.1074 1.07755 35.7971C1.7685 36.488 2.70491 36.8759 3.68182 36.8759C8.38473 36.8759 18.6153 36.8759 23.3182 36.8759C24.2939 36.8759 25.2303 36.488 25.9212 35.7971C26.611 35.1074 27 34.171 27 33.194V3.68182ZM24.5455 3.68182V33.194C24.5455 33.5193 24.4154 33.831 24.1859 34.0617C23.9551 34.2925 23.6434 34.4213 23.3182 34.4213H3.68182C3.35536 34.4213 3.04364 34.2925 2.81291 34.0617C2.58341 33.831 2.45455 33.5193 2.45455 33.194V3.68182C2.45455 3.35536 2.58341 3.04364 2.81291 2.81291C3.04364 2.58341 3.35536 2.45455 3.68182 2.45455H23.3182C23.6434 2.45455 23.9551 2.58341 24.1859 2.81291C24.4154 3.04364 24.5455 3.35536 24.5455 3.68182Z" fill="#E95815"/>
<path fill-rule="evenodd" clip-rule="evenodd" d="M13.6731 29.6386L16.6639 31.7605C16.9327 31.9507 17.2653 32.0256 17.5893 31.9667C17.9133 31.909 18.2005 31.7237 18.387 31.4525L21.8528 26.3875C22.2357 25.8279 22.0922 25.0645 21.5325 24.6816C20.9741 24.2987 20.2095 24.4423 19.8266 25.0007L17.0652 29.036L15.093 27.6369C14.5407 27.2454 13.7737 27.3755 13.3822 27.9277C12.9907 28.48 13.1208 29.2471 13.6731 29.6386Z" fill="#E95815"/>
<path fill-rule="evenodd" clip-rule="evenodd" d="M6.12571 7.42622H20.8383C21.5157 7.42622 22.0655 6.87641 22.0655 6.19895C22.0655 5.5215 21.5157 4.97168 20.8383 4.97168H6.12571C5.44826 4.97168 4.89844 5.5215 4.89844 6.19895C4.89844 6.87641 5.44826 7.42622 6.12571 7.42622Z" fill="#E95815"/>
<path fill-rule="evenodd" clip-rule="evenodd" d="M6.12571 12.3501H20.8383C21.5157 12.3501 22.0655 11.8002 22.0655 11.1228C22.0655 10.4453 21.5157 9.89551 20.8383 9.89551H6.12571C5.44826 9.89551 4.89844 10.4453 4.89844 11.1228C4.89844 11.8002 5.44826 12.3501 6.12571 12.3501Z" fill="#E95815"/>
<path fill-rule="evenodd" clip-rule="evenodd" d="M6.12571 17.2739H20.8383C21.5157 17.2739 22.0655 16.7241 22.0655 16.0466C22.0655 15.3692 21.5157 14.8193 20.8383 14.8193H6.12571C5.44826 14.8193 4.89844 15.3692 4.89844 16.0466C4.89844 16.7241 5.44826 17.2739 6.12571 17.2739Z" fill="#E95815"/>
<path fill-rule="evenodd" clip-rule="evenodd" d="M6.12571 22.1682H13.4992C14.1754 22.1682 14.7264 21.6184 14.7264 20.9409C14.7264 20.2634 14.1754 19.7136 13.4992 19.7136H6.12571C5.44826 19.7136 4.89844 20.2634 4.89844 20.9409C4.89844 21.6184 5.44826 22.1682 6.12571 22.1682Z" fill="#E95815"/>
</svg>
