<svg width="32" height="35" viewBox="0 0 32 35" fill="none" xmlns="http://www.w3.org/2000/svg">
<path d="M19.692 4.92334H4.92188V7.38502H19.692V4.92334Z" fill="#E95815"/>
<path d="M19.692 9.84705H4.92188V12.3087H19.692V9.84705Z" fill="#E95815"/>
<path d="M12.3069 14.77H4.92188V17.2317H12.3069V14.77Z" fill="#E95815"/>
<path d="M9.84524 27.0787H4.92188V29.5404H9.84524V27.0787Z" fill="#E95815"/>
<path d="M31.6368 21.2849L27.9442 17.5924C27.83 17.478 27.6944 17.3873 27.545 17.3254C27.3957 17.2635 27.2357 17.2317 27.074 17.2317C26.9124 17.2317 26.7524 17.2635 26.603 17.3254C26.4537 17.3873 26.3181 17.478 26.2038 17.5924L14.7656 29.0305V34.4635H20.1987L31.6368 23.0253C31.7511 22.9111 31.8418 22.7754 31.9037 22.6261C31.9656 22.4768 31.9974 22.3167 31.9974 22.1551C31.9974 21.9935 31.9656 21.8334 31.9037 21.6841C31.8418 21.5348 31.7511 21.3991 31.6368 21.2849ZM19.1793 32.0018H17.2273V30.0498L23.3815 23.8956L25.3335 25.8476L19.1793 32.0018ZM27.074 24.1071L25.1221 22.1551L27.074 20.2031L29.026 22.1551L27.074 24.1071Z" fill="#E95815"/>
<path d="M9.84673 34.4636H2.46168C1.80901 34.4629 1.18327 34.2033 0.721766 33.7418C0.260259 33.2803 0.000684225 32.6546 0 32.0019V2.46168C0.000684225 1.80901 0.260259 1.18327 0.721766 0.721766C1.18327 0.260259 1.80901 0.000684225 2.46168 0H22.1551C22.8078 0.000684225 23.4336 0.260259 23.8951 0.721766C24.3566 1.18327 24.6161 1.80901 24.6168 2.46168V14.7701H22.1551V2.46168H2.46168V32.0019H9.84673V34.4636Z" fill="#E95815"/>
</svg>
