<svg width="33" height="33" viewBox="0 0 33 33" fill="none" xmlns="http://www.w3.org/2000/svg">
<path d="M33 16.4688C33.0168 25.5598 25.6029 32.9936 16.512 33C12.5856 33.0028 8.97899 31.6341 6.14478 29.3466C5.4078 28.7518 5.35272 27.6473 6.02243 26.9776L6.77205 26.228C7.34482 25.6552 8.25924 25.5925 8.89383 26.096C10.9819 27.753 13.6245 28.742 16.5 28.742C23.2666 28.742 28.7419 23.2656 28.7419 16.5C28.7419 9.73336 23.2656 4.25807 16.5 4.25807C13.2523 4.25807 10.3026 5.52013 8.1124 7.58017L11.4892 10.957C12.1598 11.6276 11.6849 12.7742 10.7365 12.7742H1.06452C0.47657 12.7742 0 12.2976 0 11.7097V2.03769C0 1.08933 1.14662 0.61436 1.81726 1.28494L5.10209 4.56978C8.0643 1.73889 12.0791 0 16.5 0C25.6023 0 32.9831 7.37046 33 16.4688ZM20.9635 21.7105L21.617 20.8702C22.1585 20.1741 22.0331 19.1708 21.3369 18.6295L18.629 16.5233V9.58066C18.629 8.69878 17.9141 7.98389 17.0322 7.98389H15.9677C15.0858 7.98389 14.371 8.69878 14.371 9.58066V18.6058L18.7228 21.9906C19.4189 22.532 20.4221 22.4066 20.9635 21.7105Z" fill="#E95815"/>
</svg>
