<svg width="32" height="41" viewBox="0 0 32 41" fill="none" xmlns="http://www.w3.org/2000/svg">
<path d="M4 40.8939C2.9 40.8939 1.95833 40.5023 1.175 39.7189C0.391667 38.9356 0 37.9939 0 36.8939V4.89392C0 3.79392 0.391667 2.85225 1.175 2.06892C1.95833 1.28559 2.9 0.893921 4 0.893921H20L32 12.8939V36.8939C32 37.9939 31.6083 38.9356 30.825 39.7189C30.0417 40.5023 29.1 40.8939 28 40.8939H4ZM18 14.8939V4.89392H4V36.8939H28V14.8939H18Z" fill="#E95815"/>
<path d="M17.15 32.8939L12.6667 27.4495V25.8939H15C15.5889 25.8939 16.0972 25.6703 16.525 25.2231C16.9528 24.7759 17.2111 24.2217 17.3 23.5606H12V22.005H17.1C16.9111 21.5513 16.6306 21.1786 16.2583 20.887C15.8861 20.5953 15.4667 20.4495 15 20.4495H12V18.8939H20V20.4495H17.8333C17.9889 20.6698 18.1278 20.9097 18.25 21.1689C18.3722 21.4282 18.4667 21.7069 18.5333 22.005H20V23.5606H18.65C18.5611 24.6624 18.1722 25.5861 17.4833 26.3314C16.7944 27.0768 15.9667 27.4495 15 27.4495H14.5167L19 32.8939H17.15Z" fill="#E95815"/>
</svg>
