<svg width="39" height="39" viewBox="0 0 39 39" fill="none" xmlns="http://www.w3.org/2000/svg">
<path d="M11.7 31.2L19.5 25.2525L27.3 31.2L24.375 21.5475L32.175 15.99H22.62L19.5 5.85L16.38 15.99H6.825L14.625 21.5475L11.7 31.2ZM19.5 39C16.8025 39 14.2675 38.4881 11.895 37.4644C9.5225 36.4406 7.45875 35.0513 5.70375 33.2962C3.94875 31.5412 2.55937 29.4775 1.53562 27.105C0.511875 24.7325 0 22.1975 0 19.5C0 16.8025 0.511875 14.2675 1.53562 11.895C2.55937 9.5225 3.94875 7.45875 5.70375 5.70375C7.45875 3.94875 9.5225 2.55937 11.895 1.53562C14.2675 0.511875 16.8025 0 19.5 0C22.1975 0 24.7325 0.511875 27.105 1.53562C29.4775 2.55937 31.5412 3.94875 33.2962 5.70375C35.0513 7.45875 36.4406 9.5225 37.4644 11.895C38.4881 14.2675 39 16.8025 39 19.5C39 22.1975 38.4881 24.7325 37.4644 27.105C36.4406 29.4775 35.0513 31.5412 33.2962 33.2962C31.5412 35.0513 29.4775 36.4406 27.105 37.4644C24.7325 38.4881 22.1975 39 19.5 39ZM19.5 35.1C23.855 35.1 27.5437 33.5887 30.5662 30.5662C33.5887 27.5437 35.1 23.855 35.1 19.5C35.1 15.145 33.5887 11.4562 30.5662 8.43375C27.5437 5.41125 23.855 3.9 19.5 3.9C15.145 3.9 11.4562 5.41125 8.43375 8.43375C5.41125 11.4562 3.9 15.145 3.9 19.5C3.9 23.855 5.41125 27.5437 8.43375 30.5662C11.4562 33.5887 15.145 35.1 19.5 35.1Z" fill="#E95815"/>
</svg>
